# xmcd CD database file
#
# Track frame offsets:
#	182
#	16892
#	31470
#	47637
#	67042
#	83795
#	105337
#	122952
#	138687
#	153692
#	170242
#	183360
#	196517
#	210072
#	225672
#	242465
#	255477
#	271657
#
# Disc length: 3819 seconds
#
# Revision: 3
# Processed by: cddbd v1.5.2PL0 Copyright (c) Steve Scherf et al.
# Submitted via: CDex 1.51
#
DISCID=ea0ee912
DTITLE=Kenny Rogers - Kenny Rogers His Greatest Hits and Finest Performances d1
DYEAR=1991
DGENRE=Country
TTITLE0=Lucille
TTITLE1=Daytime Friends
TTITLE2=The Gambler
TTITLE3=She Believes In Me
TTITLE4=You Decorated My Life
TTITLE5=Through The Years
TTITLE6=Lady
TTITLE7=I Don't Need You
TTITLE8=Share Your Love With Me
TTITLE9=Love Will Turn You Around
TTITLE10=You Are So Beautiful
TTITLE11=Love Or Something Like It
TTITLE12=Ghost Of Another Man
TTITLE13=Love Love Love
TTITLE14=Don't Fall In Love With A Dreamer
TTITLE15=Laura What's He Got That I Ain't Got
TTITLE16=Am I Too Late
TTITLE17=Buried Treasure
EXTD=YEAR: 1991
EXTT0=
EXTT1=
EXTT2=
EXTT3=
EXTT4=
EXTT5=
EXTT6=
EXTT7=
EXTT8=
EXTT9=
EXTT10=
EXTT11=
EXTT12=
EXTT13=
EXTT14=
EXTT15=
EXTT16=
EXTT17=
PLAYORDER=
